<?xml version="1.0" standalone="no"?>
<!DOCTYPE svg PUBLIC "-//W3C//DTD SVG 20010904//EN"
 "http://www.w3.org/TR/2001/REC-SVG-20010904/DTD/svg10.dtd">
<svg version="1.0" xmlns="http://www.w3.org/2000/svg"
 width="16.000000pt" height="16.000000pt" viewBox="0 0 16.000000 16.000000"
 preserveAspectRatio="xMidYMid meet">
<metadata>
Created by potrace 1.11, written by Peter Selinger 2001-2013
</metadata>
<g transform="translate(0.000000,16.000000) scale(0.011111,-0.011111)"
fill="#000000" stroke="none">
<path d="M364 1366 c-34 -33 -70 -77 -79 -96 -23 -45 -28 -164 -11 -245 39
-179 77 -248 82 -147 5 127 28 247 45 236 6 -3 8 -11 6 -17 -2 -7 -1 -19 4
-28 4 -9 11 -29 14 -45 3 -16 7 -33 9 -39 1 -5 7 -28 11 -50 5 -22 10 -42 10
-45 1 -3 5 -23 9 -45 15 -73 44 -171 59 -201 9 -16 30 -40 48 -54 153 -120
388 -4 355 175 -8 41 -64 108 -110 132 -37 19 -137 25 -180 10 -42 -14 -55
-29 -58 -66 -1 -17 -6 -31 -10 -31 -4 0 -8 1 -8 3 0 4 -18 100 -24 132 -11 55
-58 273 -62 290 -3 11 -6 29 -8 40 -2 11 -9 47 -16 80 -8 33 -13 63 -12 68 4
17 -16 1 -74 -57z"/>
<path d="M658 1283 c-2 -5 -4 -51 -4 -103 l1 -95 75 -1 c81 -1 142 -20 198
-62 110 -80 162 -174 162 -288 0 -117 -76 -227 -275 -397 -38 -33 -73 -64 -76
-69 -15 -23 -221 167 -294 270 -72 101 -86 134 -89 212 l-1 35 -82 2 -83 1 0
-66 c0 -37 5 -85 12 -107 6 -22 12 -42 13 -45 0 -3 11 -25 24 -50 58 -111 149
-212 390 -430 100 -91 101 -91 116 -77 7 7 40 37 75 67 60 52 245 234 301 296
43 48 106 152 124 204 1 3 5 12 8 20 24 54 27 213 6 278 -6 18 -12 39 -13 46
-9 64 -130 222 -204 268 -20 12 -39 25 -42 28 -9 11 -85 41 -140 55 -58 15
-196 20 -202 8z"/>
</g>
</svg>
